# xmcd CD database file
#
# Track frame offsets:
#	150
#	15467
#	31171
#	44959
#	81310
#	101948
#	142490
#	168409
#	188150
#
# Disc length: 2842 seconds
#
# Revision: 0
# Processed by: cddbd v1.4PL0 Copyright (c) Steve Scherf et al.
# Submitted via: CDex 1.40Beta8
#
DISCID=810b1809
DTITLE=Supercharge - Loaded! Live at Spectrum, Augsburg - Disk 1
DYEAR=1900
DGENRE=Blues
TTITLE0=Gangster Of Love
TTITLE1=Choo Choo Ch'Boogie
TTITLE2=Natural Ball
TTITLE3=Personal Manager
TTITLE4=T-Bone Shuffle
TTITLE5=Comin' Home
TTITLE6=Early In The Morning
TTITLE7=Save Your Love For Me
TTITLE8=Breakin' Up Someone's Home
EXTD=ID3G: 0
EXTT0=
EXTT1=
EXTT2=
EXTT3=
EXTT4=
EXTT5=
EXTT6=
EXTT7=
EXTT8=
PLAYORDER=
